<svg width="1848" height="6224" viewBox="0 0 1848 6224" fill="none" xmlns="http://www.w3.org/2000/svg">
<path d="M964.306 5653.27C1110.01 5653.27 1228.12 5535.16 1228.12 5389.46C1228.12 5243.77 1110.01 5125.66 964.306 5125.66C818.608 5125.66 700.496 5243.77 700.496 5389.46C700.496 5535.16 818.608 5653.27 964.306 5653.27Z" fill="#917241"/>
<path d="M1207.2 5389.46C1206.29 5490.16 1143.14 5583.67 1047.4 5617.84C951.092 5652.18 842.862 5622.69 777.171 5544.45C712.003 5466.8 703.809 5352.4 755.343 5265.55C806.878 5178.69 911.552 5130.89 1011.34 5151.04C1124.63 5173.95 1206.15 5274.26 1207.2 5389.43C1207.44 5416.35 1249.28 5416.41 1249.04 5389.43C1247.96 5270.71 1174.11 5164.22 1062.88 5122.31C951.406 5080.3 819.814 5116.11 744.674 5208.36C669.534 5300.62 658.271 5433.78 720.406 5536.39C782.262 5638.55 903.183 5691.17 1020.13 5668.61C1152.52 5643.05 1247.82 5522.9 1249.04 5389.43C1249.28 5362.51 1207.44 5362.48 1207.2 5389.43V5389.46Z" fill="#917241"/>
<path d="M293.483 5862.43L345.855 5917.66L294.634 5966.23C288.322 5964.14 282.186 5961.87 276.258 5959.43C270.331 5956.99 264.368 5953.99 258.406 5950.43C252.443 5946.91 246.342 5942.62 240.135 5937.67C233.929 5932.69 227.443 5926.62 220.679 5919.51C209.835 5908.07 201.432 5896.01 195.469 5883.32C189.542 5870.62 186.125 5858 185.288 5845.45C184.451 5832.9 186.264 5820.77 190.797 5809.02C195.33 5797.27 202.582 5786.67 212.589 5777.18C223.189 5767.14 234.73 5759.92 247.213 5755.53C259.696 5751.14 272.388 5749.46 285.324 5750.51C298.225 5751.55 310.987 5755.25 323.609 5761.6C336.231 5767.94 347.947 5776.87 358.825 5788.3C365.206 5795.03 370.436 5802.39 374.551 5810.37C378.63 5818.36 381.699 5826.41 383.721 5834.57C385.743 5842.73 386.824 5850.79 386.964 5858.7C387.103 5866.62 386.406 5873.94 384.907 5880.6L359.906 5878.78C361.231 5872.19 362.138 5865.74 362.626 5859.43C363.114 5853.12 362.975 5847.05 362.208 5841.2C361.44 5835.34 359.906 5829.76 357.57 5824.43C355.269 5819.09 351.956 5814.18 347.668 5809.68C341.147 5802.81 333.86 5797.61 325.736 5794.02C317.646 5790.47 309.173 5788.72 300.387 5788.79C291.6 5788.9 282.604 5790.92 273.504 5794.93C264.368 5798.94 255.512 5805.01 246.865 5813.2C238.217 5821.39 231.836 5829.9 227.722 5838.79C223.608 5847.68 221.411 5856.5 221.167 5865.29C220.923 5874.08 222.527 5882.62 225.944 5890.85C229.361 5899.08 234.347 5906.68 240.937 5913.62C244.842 5917.73 249.061 5921.11 253.629 5923.76C258.197 5926.41 263.008 5928.19 268.169 5929.17L303.49 5895.66L282.081 5873.1L293.448 5862.29L293.483 5862.43Z" fill="#1C1C4A" stroke="#1C1C4A" stroke-width="1.35155" stroke-miterlimit="10"/>
<path d="M439.475 5872.75L495.577 5912.81C505.27 5919.72 512.976 5926.76 518.764 5933.94C524.552 5941.13 528.562 5948.24 530.759 5955.32C532.956 5962.39 533.513 5969.26 532.363 5975.99C531.212 5982.72 528.562 5989 524.378 5994.86C521.345 5999.11 517.649 6002.53 513.29 6005.14C508.932 6007.76 504.155 6009.57 498.89 6010.65C493.625 6011.73 488.011 6011.97 482.048 6011.42C476.086 6010.86 469.984 6009.57 463.778 6007.58L465.939 6116.92L426.12 6088.47L424.237 5985.27L417.752 5980.63L369.599 6048.06L332.953 6021.91L439.51 5872.72L439.475 5872.75ZM427.062 5967.59L434.977 5973.24C439.44 5976.45 444.042 5978.78 448.749 5980.25C453.457 5981.71 458.024 5982.3 462.453 5981.99C466.881 5981.68 471.1 5980.39 475.075 5978.12C479.05 5975.89 482.571 5972.61 485.605 5968.36C488.429 5964.38 490.417 5960.34 491.567 5956.15C492.718 5952 493.067 5947.96 492.648 5944.05C492.23 5940.15 490.975 5936.45 488.917 5933C486.86 5929.51 484.071 5926.55 480.549 5924.04L465.695 5913.44L427.027 5967.59H427.062Z" fill="#1C1C4A" stroke="#1C1C4A" stroke-width="1.35155" stroke-miterlimit="10"/>
<path d="M574.065 5968.15L615.942 5984.71L572.531 6094.33C569.951 6100.89 568.521 6107.44 568.277 6114.03C568.033 6120.62 568.975 6126.83 571.067 6132.65C573.159 6138.47 576.436 6143.7 580.83 6148.37C585.223 6153.01 590.837 6156.71 597.636 6159.39C604.261 6162.01 610.746 6163.12 617.092 6162.74C623.438 6162.36 629.366 6160.75 634.84 6157.93C640.314 6155.1 645.231 6151.2 649.589 6146.25C653.948 6141.26 657.4 6135.51 659.98 6128.99L703.39 6019.37L729.785 6029.83L686.375 6139.45C682.888 6148.27 678.111 6155.97 672.044 6162.63C665.977 6169.29 658.585 6174.28 649.903 6177.63C641.221 6180.97 631.214 6182.37 619.882 6181.88C608.55 6181.36 595.893 6178.32 581.876 6172.78C569.393 6167.83 559.037 6161.73 550.808 6154.51C542.579 6147.26 536.408 6139.41 532.293 6130.98C528.179 6122.5 526.017 6113.68 525.843 6104.51C525.634 6095.31 527.307 6086.28 530.829 6077.42L574.1 5968.18L574.065 5968.15Z" fill="#1C1C4A" stroke="#1C1C4A" stroke-width="1.35155" stroke-miterlimit="10"/>
<path d="M756.773 6033.8L820.512 6039.07C830.763 6039.9 840.247 6041.79 848.999 6044.68C857.751 6047.57 865.247 6051.44 871.523 6056.33C877.765 6061.17 882.507 6066.99 885.75 6073.72C888.992 6080.45 890.247 6088.09 889.55 6096.63C888.853 6105.24 886.342 6112.64 882.088 6118.74C877.835 6124.84 872.43 6129.79 865.945 6133.59C859.424 6137.39 852.172 6140.04 844.117 6141.47C836.098 6142.94 827.939 6143.32 819.675 6142.62L793.28 6140.42L786.69 6220.2L741.675 6216.47L756.808 6033.77L756.773 6033.8ZM794.64 6123.9L809.319 6125.12C814.445 6125.54 818.977 6124.98 822.883 6123.48C826.823 6121.95 830.17 6119.71 832.925 6116.72C835.714 6113.75 837.876 6110.23 839.48 6106.22C841.084 6102.21 842.06 6097.89 842.444 6093.32C842.897 6087.85 842.444 6082.93 841.153 6078.57C839.828 6074.21 837.876 6070.45 835.296 6067.31C832.715 6064.17 829.577 6061.66 825.881 6059.81C822.185 6057.96 818.141 6056.85 813.747 6056.5L800.288 6055.38L794.605 6123.97L794.64 6123.9Z" fill="#1C1C4A" stroke="#1C1C4A" stroke-width="1.35155" stroke-miterlimit="10"/>
<path d="M1051.2 6207.12C1036.8 6210.44 1022.82 6211.24 1009.29 6209.46C995.723 6207.68 983.415 6203.67 972.362 6197.4C961.274 6191.12 951.79 6182.82 943.909 6172.47C936.029 6162.11 930.485 6150.05 927.277 6136.27C924.139 6122.75 923.895 6109.74 926.51 6097.26C929.125 6084.78 934.077 6073.44 941.329 6063.23C948.582 6053.05 957.926 6044.26 969.398 6036.9C980.834 6029.55 993.736 6024.21 1008.14 6020.87C1022.54 6017.55 1036.48 6016.72 1049.94 6018.36C1063.4 6019.99 1075.68 6023.83 1086.73 6029.76C1097.78 6035.72 1107.23 6043.7 1115.08 6053.68C1122.92 6063.65 1128.4 6075.33 1131.5 6088.68C1133.7 6098.17 1134.57 6107.37 1134.15 6116.3C1133.73 6125.22 1132.13 6133.73 1129.34 6141.75C1126.58 6149.8 1122.75 6157.3 1117.9 6164.24C1113.02 6171.18 1107.23 6177.49 1100.54 6183.1C1093.84 6188.71 1086.31 6193.56 1078.01 6197.68C1069.71 6201.75 1060.75 6204.93 1051.2 6207.12ZM1047.71 6192.1C1056.39 6190.07 1063.61 6186.31 1069.36 6180.76C1075.12 6175.22 1079.41 6168.42 1082.27 6160.37C1085.12 6152.31 1086.59 6143.18 1086.66 6132.93C1086.73 6122.68 1085.47 6111.8 1082.79 6100.29C1080.17 6088.96 1076.62 6078.88 1072.12 6070.03C1067.62 6061.17 1062.36 6053.88 1056.32 6048.13C1050.29 6042.41 1043.49 6038.44 1035.93 6036.21C1028.36 6033.98 1020.27 6033.87 1011.55 6035.86C1002.77 6037.88 995.479 6041.58 989.691 6046.88C983.903 6052.21 979.544 6058.77 976.615 6066.54C973.687 6074.35 972.187 6083.21 972.083 6093.14C971.978 6103.08 973.233 6113.68 975.848 6125.01C978.498 6136.52 982.09 6146.84 986.623 6156.04C991.155 6165.21 996.455 6172.82 1002.56 6178.81C1008.66 6184.81 1015.53 6189.03 1023.09 6191.47C1030.7 6193.91 1038.89 6194.12 1047.68 6192.1H1047.71Z" fill="#1C1C4A" stroke="#1C1C4A" stroke-width="1.35155" stroke-miterlimit="10"/>
<path d="M1330.11 6094.89C1320.55 6100.33 1311.56 6103.95 1303.12 6105.84C1294.68 6107.68 1286.84 6108.07 1279.58 6107.02C1272.33 6105.94 1265.67 6103.57 1259.6 6099.8C1253.54 6096.04 1248.1 6091.23 1243.29 6085.37L1270.41 6069.92C1273.62 6073.38 1277.11 6076.34 1280.87 6078.75C1284.64 6081.15 1288.65 6082.86 1292.87 6083.84C1297.09 6084.81 1301.51 6084.92 1306.15 6084.22C1310.79 6083.52 1315.6 6081.71 1320.62 6078.88C1323.9 6077 1326.97 6074.81 1329.83 6072.26C1332.69 6069.71 1334.95 6066.89 1336.59 6063.82C1338.27 6060.75 1339.17 6057.48 1339.28 6054.06C1339.38 6050.61 1338.37 6047.02 1336.24 6043.25C1333.56 6038.54 1329.97 6035.06 1325.43 6032.76C1320.9 6030.45 1315.81 6028.92 1310.09 6028.19C1304.37 6027.46 1298.24 6027.25 1291.68 6027.56C1285.13 6027.87 1278.43 6028.22 1271.6 6028.64C1264.76 6029.06 1258 6029.27 1251.27 6029.23C1244.54 6029.23 1238.16 6028.61 1232.13 6027.28C1226.1 6025.99 1220.59 6023.79 1215.6 6020.66C1210.61 6017.52 1206.46 6013.09 1203.15 6007.27C1199.53 6000.92 1197.61 5994.26 1197.33 5987.32C1197.05 5980.39 1198.41 5973.45 1201.41 5966.51C1204.41 5959.57 1209.08 5952.81 1215.39 5946.25C1221.7 5939.7 1229.72 5933.66 1239.45 5928.12C1247.43 5923.55 1255.31 5920.55 1263.06 5919.02C1270.8 5917.52 1278.26 5917.28 1285.44 5918.32C1292.62 5919.37 1299.39 5921.53 1305.7 5924.81C1312.04 5928.09 1317.8 5932.23 1322.99 5937.15L1298.45 5951.13C1294.89 5948.17 1291.19 5945.52 1287.36 5943.15C1283.52 5940.78 1279.48 5939.07 1275.26 5938.06C1271.04 5937.05 1266.54 5936.87 1261.77 5937.57C1256.99 5938.27 1251.9 5940.15 1246.49 5943.25C1241.4 5946.15 1237.5 5949.25 1234.78 5952.56C1232.06 5955.87 1230.21 5959.19 1229.3 5962.46C1228.4 5965.74 1228.15 5968.91 1228.68 5972.02C1229.2 5975.09 1230.14 5977.84 1231.5 5980.28C1233.91 5984.5 1237.36 5987.64 1241.82 5989.66C1246.28 5991.68 1251.44 5993.01 1257.23 5993.64C1263.06 5994.26 1269.33 5994.44 1276.13 5994.16C1282.93 5993.88 1289.8 5993.57 1296.81 5993.18C1303.82 5992.83 1310.79 5992.66 1317.76 5992.69C1324.74 5992.69 1331.29 5993.36 1337.46 5994.65C1343.64 5995.9 1349.21 5998.03 1354.2 6000.99C1359.22 6003.96 1363.27 6008.17 1366.37 6013.65C1370.06 6020.13 1372.16 6026.93 1372.68 6034.01C1373.2 6041.09 1371.98 6048.17 1369.09 6055.28C1366.19 6062.39 1361.49 6069.33 1355.04 6076.1C1348.59 6082.89 1340.25 6089.17 1330.07 6094.96L1330.11 6094.89Z" fill="#1C1C4A" stroke="#1C1C4A" stroke-width="1.35155" stroke-miterlimit="10"/>
<path d="M1525.02 5950.3C1514.49 5960.69 1503.02 5968.67 1490.53 5974.25C1478.05 5979.83 1465.46 5982.86 1452.77 5983.31C1440.04 5983.77 1427.63 5981.68 1415.46 5977C1403.33 5972.33 1392.28 5964.97 1382.34 5954.9C1372.58 5945.03 1365.57 5934.08 1361.24 5922.05C1356.92 5910.06 1355.18 5897.79 1356.05 5885.3C1356.88 5872.82 1360.27 5860.44 1366.12 5848.17C1372.02 5835.9 1380.21 5824.6 1390.74 5814.21C1401.27 5803.82 1412.67 5795.8 1425.02 5790.15C1437.36 5784.5 1449.77 5781.3 1462.33 5780.6C1474.88 5779.9 1487.08 5781.71 1499.01 5786.11C1510.93 5790.5 1521.71 5797.54 1531.33 5807.31C1538.16 5814.24 1543.74 5821.6 1548.07 5829.45C1552.39 5837.29 1555.46 5845.35 1557.34 5853.64C1559.22 5861.94 1559.89 5870.31 1559.36 5878.78C1558.87 5887.26 1557.24 5895.66 1554.48 5903.96C1551.73 5912.26 1547.86 5920.31 1542.94 5928.15C1538.02 5936 1532.06 5943.36 1525.05 5950.26L1525.02 5950.3ZM1514.21 5939.35C1520.55 5933.07 1524.74 5926.1 1526.73 5918.36C1528.71 5910.62 1528.82 5902.56 1527.04 5894.23C1525.26 5885.86 1521.71 5877.32 1516.41 5868.53C1511.11 5859.78 1504.31 5851.17 1496.01 5842.77C1487.85 5834.5 1479.52 5827.77 1471.04 5822.58C1462.57 5817.38 1454.27 5813.93 1446.11 5812.22C1437.95 5810.51 1430.11 5810.69 1422.51 5812.75C1414.91 5814.8 1407.93 5818.95 1401.59 5825.23C1395.17 5831.57 1390.88 5838.51 1388.72 5846.08C1386.56 5853.64 1386.28 5861.52 1387.88 5869.68C1389.49 5877.84 1392.83 5886.21 1397.96 5894.72C1403.05 5903.23 1409.71 5911.63 1417.87 5919.89C1426.17 5928.29 1434.64 5935.23 1443.32 5940.67C1452 5946.11 1460.48 5949.77 1468.81 5951.69C1477.14 5953.57 1485.2 5953.61 1492.94 5951.69C1500.68 5949.81 1507.79 5945.69 1514.21 5939.35Z" fill="#1C1C4A" stroke="#1C1C4A" stroke-width="1.35155" stroke-miterlimit="10"/>
<path d="M1543.01 5601.94L1556.71 5609.58L1512.01 5689.91L1564.84 5719.27L1601.97 5652.5L1615.67 5660.13L1578.54 5726.9L1642.1 5762.26L1686.8 5681.93L1703.23 5691.06L1636.66 5810.76L1476.45 5721.64L1543.01 5601.94Z" fill="#1C1C4A" stroke="#1C1C4A" stroke-width="1.35155" stroke-miterlimit="10"/>
<path d="M1567.91 5503.65L1771.36 5471.82L1758.84 5516.06L1704.45 5524.57L1685.06 5593.12L1726.66 5629.87L1718.36 5659.26L1562.61 5522.38L1567.91 5503.65ZM1671.01 5580.29L1686 5527.22L1621.64 5537.26L1671.01 5580.29Z" fill="#1C1C4A" stroke="#1C1C4A" stroke-width="1.35155" stroke-miterlimit="10"/>
<path d="M1783.91 5357.84C1783.08 5368.79 1781.09 5378.31 1777.92 5386.33C1774.74 5394.34 1770.66 5401.07 1765.75 5406.48C1760.83 5411.88 1755.11 5416.07 1748.59 5419.03C1742.11 5421.99 1735.06 5423.81 1727.5 5424.5L1729.83 5393.37C1734.5 5392.64 1738.9 5391.38 1743.01 5389.64C1747.13 5387.86 1750.75 5385.49 1753.93 5382.52C1757.1 5379.56 1759.68 5375.97 1761.67 5371.72C1763.65 5367.5 1764.87 5362.48 1765.29 5356.72C1765.57 5352.96 1765.47 5349.16 1764.94 5345.39C1764.42 5341.63 1763.34 5338.14 1761.74 5335.04C1760.13 5331.93 1757.9 5329.39 1755.11 5327.37C1752.32 5325.34 1748.77 5324.16 1744.48 5323.84C1739.07 5323.43 1734.16 5324.47 1729.73 5326.95C1725.3 5329.42 1721.19 5332.8 1717.35 5337.13C1713.55 5341.45 1709.92 5346.44 1706.54 5352.05C1703.16 5357.66 1699.71 5363.42 1696.22 5369.31C1692.77 5375.2 1689.14 5380.92 1685.38 5386.53C1681.61 5392.15 1677.5 5397.06 1673.07 5401.32C1668.64 5405.57 1663.72 5408.92 1658.35 5411.32C1652.98 5413.73 1646.95 5414.67 1640.29 5414.15C1633 5413.59 1626.41 5411.5 1620.49 5407.84C1614.56 5404.18 1609.57 5399.19 1605.49 5392.81C1601.41 5386.46 1598.42 5378.83 1596.5 5369.9C1594.58 5360.98 1594.06 5350.97 1594.89 5339.81C1595.59 5330.64 1597.47 5322.41 1600.54 5315.16C1603.61 5307.91 1607.59 5301.56 1612.47 5296.19C1617.35 5290.83 1622.93 5286.43 1629.2 5283.01C1635.48 5279.6 1642.1 5277.12 1649.08 5275.55L1646.95 5303.73C1642.52 5305.02 1638.23 5306.58 1634.12 5308.47C1630.01 5310.32 1626.34 5312.72 1623.14 5315.65C1619.93 5318.58 1617.28 5322.21 1615.19 5326.56C1613.09 5330.92 1611.8 5336.19 1611.35 5342.39C1610.9 5348.25 1611.32 5353.2 1612.54 5357.32C1613.76 5361.43 1615.47 5364.78 1617.66 5367.39C1619.86 5370.01 1622.37 5371.96 1625.23 5373.25C1628.09 5374.54 1630.88 5375.31 1633.67 5375.52C1638.51 5375.87 1643.05 5374.78 1647.2 5372.2C1651.38 5369.62 1655.35 5366.1 1659.12 5361.64C1662.89 5357.18 1666.55 5352.05 1670.1 5346.26C1673.66 5340.48 1677.25 5334.58 1680.88 5328.59C1684.5 5322.59 1688.27 5316.7 1692.18 5310.94C1696.08 5305.19 1700.3 5300.1 1704.8 5295.71C1709.3 5291.31 1714.18 5287.86 1719.41 5285.35C1724.67 5282.84 1730.43 5281.83 1736.74 5282.32C1744.2 5282.88 1751 5284.93 1757.13 5288.45C1763.27 5291.98 1768.5 5296.96 1772.75 5303.34C1777.01 5309.72 1780.15 5317.5 1782.17 5326.63C1784.19 5335.77 1784.75 5346.19 1783.88 5357.87L1783.91 5357.84Z" fill="#1C1C4A" stroke="#1C1C4A" stroke-width="1.35155" stroke-miterlimit="10"/>
<path d="M1601.24 5217.22L1677.5 5149.09L1589.7 5100.87L1586.7 5070.61L1697.37 5131.66L1776.21 5123.85L1780.63 5168.65L1704.48 5176.18L1605.84 5264.08L1601.2 5217.26L1601.24 5217.22Z" fill="#1C1C4A" stroke="#1C1C4A" stroke-width="1.35155" stroke-miterlimit="10"/>
<mask id="mask0_71_2" style="mask-type:luminance" maskUnits="userSpaceOnUse" x="0" y="0" width="1848" height="5007">
<path d="M916.329 4835.26C916.329 4835.26 1313.09 4846.48 1343.43 4829.05C1373.76 4811.62 1405.74 4902.34 1424.63 4748.89C1443.53 4595.44 1622.33 2409.33 1622.33 2409.33L1848 13.9467L52.3019 0L0 4640.77L495.125 5006.87L916.329 4835.26Z" fill="white"/>
</mask>
<g mask="url(#mask0_71_2)">
<path d="M1808.67 291.556L1424.63 4748.89C1419.93 4803.32 1373.48 4844.57 1318.88 4842.79L633.481 4820.33C581.075 4818.62 538.361 4777.73 534.352 4725.43L191.6 228.586C186.928 167.116 236.998 115.409 298.575 118.094L1710.76 180.017C1769.16 182.562 1813.69 233.259 1808.67 291.521V291.556Z" fill="#1C1C4A"/>
<path d="M1104.65 2849.45C1036.07 2849.45 972.78 2859.56 914.795 2879.82C856.775 2900.08 806.774 2929.12 764.793 2966.95C722.777 3004.82 690.071 3050.53 666.64 3104.12C643.209 3157.71 631.493 3217.58 631.493 3283.75C631.493 3349.93 644.22 3410.53 669.638 3464.12C695.057 3517.67 729.925 3563.28 774.207 3600.9C818.49 3638.52 870.652 3667.46 930.66 3687.69C990.667 3707.94 1054.96 3718.05 1123.55 3718.05C1173.27 3718.05 1218.11 3712.48 1258.14 3701.28C1298.13 3690.09 1334.15 3674.02 1366.16 3653.06V3320.92H1150.99V3264.51H1557.31V3680.96C1524.15 3695.74 1490.71 3708.81 1457.03 3720.25C1423.31 3731.69 1386.87 3741.21 1347.75 3748.84C1308.59 3756.44 1265.6 3762.3 1218.74 3766.34C1171.88 3770.39 1118.74 3772.41 1059.29 3772.41C996.421 3772.41 936.692 3766.59 880.136 3754.91C823.545 3743.23 771.139 3726.7 722.847 3705.26C674.555 3683.81 630.97 3658.22 592.127 3628.48C553.249 3598.74 520.264 3565.76 493.102 3529.56C465.94 3493.37 444.95 3454.57 430.096 3413.14C415.242 3371.72 407.815 3328.63 407.815 3283.86C407.815 3239.09 414.824 3196.34 428.806 3154.22C442.788 3112.07 462.941 3072.32 489.232 3034.94C515.522 2997.57 547.531 2963.4 585.223 2932.44C622.95 2901.47 665.489 2874.84 712.944 2852.42C760.365 2830.03 812.074 2812.67 868.107 2800.26C924.105 2787.88 983.519 2781.67 1046.42 2781.67C1109.32 2781.67 1162.01 2788.47 1213.16 2802.03C1264.31 2815.6 1310.89 2833.59 1352.88 2855.97C1394.89 2878.36 1432.17 2904.19 1464.73 2933.48C1497.3 2962.77 1525.3 2993.38 1548.73 3025.29L1466.44 3071C1418.43 2994.32 1365.15 2938.26 1306.57 2902.76C1247.99 2867.3 1180.7 2849.56 1104.69 2849.56L1104.65 2849.45Z" fill="white"/>
<path d="M866.259 4217.42C892.061 4217.42 917.619 4214.45 942.898 4208.52C968.178 4202.6 990.807 4193.81 1010.82 4182.2C1030.84 4170.59 1046.87 4156.33 1059.01 4139.42C1071.11 4122.54 1077.17 4102.88 1077.17 4080.49C1077.17 4053.72 1068.88 4029.9 1052.28 4009.05C1035.68 3988.2 1013.96 3969.13 987.111 3951.77C960.263 3934.44 929.579 3918.08 895.094 3902.71C860.61 3887.37 825.428 3871.99 789.619 3856.61C753.81 3841.27 718.628 3825.13 684.144 3808.22C649.624 3791.34 618.975 3772.45 592.127 3751.6C565.279 3730.75 543.556 3707.49 526.959 3681.83C510.362 3656.17 502.063 3626.63 502.063 3593.3C502.063 3559.97 509.56 3529.01 524.588 3500.49C539.581 3471.96 561.583 3447.28 590.558 3426.43C619.533 3405.58 655.203 3389.23 697.603 3377.37C740.002 3365.52 788.573 3359.59 843.35 3359.59C892.863 3359.59 937.075 3363.98 976.058 3372.77C1015.04 3381.55 1049.25 3394.49 1078.74 3411.61C1108.24 3428.73 1133.24 3449.79 1153.78 3474.82C1174.32 3499.82 1190.91 3528.8 1203.54 3561.71L1113.47 3595.95C1102.94 3569.17 1089.48 3544.73 1073.16 3522.56C1056.85 3500.42 1037.36 3481.41 1014.69 3465.62C992.027 3449.82 965.841 3437.66 936.099 3429.08C906.357 3420.54 872.779 3416.25 835.366 3416.25C802.171 3416.25 773.231 3420.08 748.475 3427.75C723.719 3435.42 703.042 3445.54 686.445 3458.02C669.848 3470.53 657.47 3484.59 649.31 3500.14C641.151 3515.72 637.072 3531.62 637.072 3547.87C637.072 3570.71 645.475 3591.66 662.351 3610.73C679.192 3629.81 701.577 3647.83 729.507 3664.71C757.401 3681.62 789.166 3697.97 824.696 3713.77C860.261 3729.56 896.454 3745.6 933.31 3761.81C970.165 3778.06 1006.39 3794.93 1041.92 3812.51C1077.49 3830.08 1109.18 3849.26 1137.11 3870.11C1165.01 3890.96 1187.39 3913.8 1204.27 3938.55C1221.11 3963.34 1229.55 3991.13 1229.55 4021.81C1229.55 4056.51 1221.63 4089.07 1205.84 4119.58C1190.04 4150.09 1166.33 4176.62 1134.74 4199.22C1103.15 4221.84 1063.89 4239.7 1017.03 4252.88C970.13 4266.06 915.632 4272.65 853.497 4272.65C802.939 4272.65 757.924 4268.04 718.419 4258.8C678.913 4249.6 644.011 4236.21 613.745 4218.64C583.445 4201.1 557.503 4179.69 535.92 4154.45C514.337 4129.2 496.694 4100.37 482.99 4067.87L576.994 4035.62C588.048 4064.14 602.936 4089.59 621.625 4111.98C640.315 4134.36 662.037 4153.33 686.793 4168.92C711.55 4184.5 739.06 4196.46 769.361 4204.79C799.626 4213.13 831.879 4217.31 866.119 4217.31L866.259 4217.42Z" fill="white"/>
<path d="M1343.46 4829.05C1288.68 4829.05 1237.22 4820.51 1189.03 4803.39C1140.84 4786.27 1098.83 4763.01 1063.02 4733.62C1027.21 4704.23 998.897 4669.67 978.081 4629.92C957.265 4590.21 946.874 4547.95 946.874 4503.22C946.874 4449.25 956.358 4399.32 975.326 4353.47C994.294 4307.62 1021.14 4268.01 1055.91 4234.64C1090.67 4201.31 1132.41 4175.19 1181.12 4156.29C1229.83 4137.43 1284.22 4127.98 1344.26 4127.98C1396.91 4127.98 1445.38 4135.79 1489.63 4151.34C1533.88 4166.93 1571.92 4187.78 1603.79 4213.86C1635.65 4239.98 1660.38 4270.13 1678.05 4304.37C1695.7 4338.61 1704.52 4374.39 1704.52 4411.69H1101.76C1101.76 4456.88 1108.73 4498.83 1122.68 4537.42C1136.63 4576.06 1156.26 4609.39 1181.54 4637.49C1206.81 4665.59 1236.84 4687.52 1271.6 4703.32C1306.36 4719.11 1344.54 4727.03 1386.14 4727.03C1420.9 4727.03 1454.34 4722.32 1486.46 4712.87C1518.57 4703.42 1547.68 4691.05 1573.73 4675.67C1599.81 4660.33 1622.06 4642.76 1640.5 4623.02C1658.95 4603.29 1671.81 4582.85 1679.21 4561.8L1725.82 4578.91C1714.25 4613.57 1695.52 4646.07 1669.72 4676.33C1643.92 4706.6 1613.76 4733.06 1579.27 4755.65C1544.75 4778.28 1507.24 4796.13 1466.69 4809.31C1426.13 4822.49 1385.06 4829.05 1343.46 4829.05ZM1503.02 4357.72C1503.02 4332.27 1497.61 4308.56 1486.84 4286.63C1476.03 4264.7 1461.18 4245.69 1442.21 4229.69C1423.24 4213.69 1401.13 4201.06 1375.85 4191.82C1350.57 4182.62 1323.45 4178.02 1294.47 4178.02C1270.24 4178.02 1247.09 4182.51 1224.95 4191.51C1202.84 4200.51 1183.07 4213.02 1165.71 4229.03C1148.34 4245.07 1133.98 4264.03 1122.64 4285.96C1111.31 4307.93 1104.58 4331.6 1102.49 4357.06L1503.02 4357.72Z" fill="white"/>
</g>
</svg>
