<svg width="200" height="200" viewBox="0 0 200 200" fill="none" xmlns="http://www.w3.org/2000/svg">
<path d="M100 0C155.23 0 200 44.77 200 100C200 155.23 155.23 200 100 200C82.3277 200.03 64.966 195.353 49.7002 186.45L0.0401546 200L13.5602 150.32C4.64974 135.049 -0.0308163 117.68 0.000152687 100C0.000152687 44.77 44.7702 0 100 0ZM65.9202 53L63.9201 53.08C62.6271 53.1691 61.3636 53.5087 60.2002 54.08C59.1159 54.6951 58.1258 55.463 57.2602 56.36C56.0602 57.49 55.3802 58.47 54.6502 59.42C50.9514 64.229 48.9599 70.1331 48.9902 76.2C49.0102 81.1 50.2902 85.87 52.2902 90.33C56.3802 99.35 63.1102 108.9 71.9902 117.75C74.1302 119.88 76.2302 122.02 78.4902 124.01C89.5245 133.724 102.673 140.73 116.89 144.47L122.57 145.34C124.42 145.44 126.27 145.3 128.13 145.21C131.042 145.056 133.885 144.268 136.46 142.9C137.769 142.223 139.047 141.489 140.29 140.7C140.29 140.7 140.713 140.413 141.54 139.8C142.89 138.8 143.72 138.09 144.84 136.92C145.68 136.053 146.38 135.047 146.94 133.9C147.72 132.27 148.5 129.16 148.82 126.57C149.06 124.59 148.99 123.51 148.96 122.84C148.92 121.77 148.03 120.66 147.06 120.19L141.24 117.58C141.24 117.58 132.54 113.79 127.22 111.37C126.663 111.128 126.067 110.989 125.46 110.96C124.776 110.888 124.084 110.965 123.432 111.184C122.78 111.403 122.182 111.76 121.68 112.23C121.63 112.21 120.96 112.78 113.73 121.54C113.315 122.098 112.744 122.519 112.088 122.751C111.433 122.982 110.723 123.013 110.05 122.84C109.398 122.666 108.76 122.446 108.14 122.18C106.9 121.66 106.47 121.46 105.62 121.1C99.8789 118.599 94.5646 115.215 89.8702 111.07C88.6102 109.97 87.4402 108.77 86.2402 107.61C82.3063 103.842 78.8777 99.5799 76.0401 94.93L75.4501 93.98C75.0328 93.338 74.6905 92.6501 74.4302 91.93C74.0502 90.46 75.0402 89.28 75.0402 89.28C75.0402 89.28 77.4702 86.62 78.6002 85.18C79.7002 83.78 80.6302 82.42 81.2302 81.45C82.4102 79.55 82.7802 77.6 82.1602 76.09C79.3602 69.25 76.4668 62.4467 73.4802 55.68C72.8902 54.34 71.1402 53.38 69.5502 53.19C69.0102 53.1233 68.4702 53.07 67.9302 53.03C66.5874 52.953 65.2411 52.9663 63.9002 53.07L65.9202 53Z" fill="#1C1C4A"/>
</svg>
