<svg width="616" height="500" viewBox="0 0 616 500" fill="none" xmlns="http://www.w3.org/2000/svg">
<path d="M597.505 76.1657L500.041 173.329L441.652 115.144L539.116 18.0166C484.765 -8.42577 408.526 -8.53394 363.394 36.4661C320.942 78.7739 315.642 145.373 336.303 197.765L119.656 412.693C118.311 414.033 117.244 415.625 116.516 417.378C115.788 419.131 115.414 421.011 115.414 422.909C115.414 424.807 115.788 426.687 116.516 428.44C117.244 430.193 118.311 431.786 119.656 433.126L182.48 495.758C183.82 497.102 185.413 498.169 187.166 498.897C188.919 499.625 190.798 500 192.697 500C194.595 500 196.475 499.625 198.228 498.897C199.981 498.169 201.573 497.102 202.913 495.758L419.26 278.81C471.135 298.294 537.048 292.801 578.803 251.166C623.875 206.154 623.779 130.565 597.505 76.1657Z" fill="#8D7348"/>
<path d="M439.229 313.234L352.894 399.772L443.676 495.83C444.878 497.109 446.326 498.133 447.933 498.84C449.539 499.548 451.272 499.925 453.027 499.948C454.783 499.972 456.525 499.642 458.15 498.977C459.775 498.313 461.249 497.329 462.486 496.083L534.601 423.414C535.835 422.165 536.807 420.682 537.461 419.053C538.115 417.423 538.438 415.68 538.411 413.925C538.384 412.169 538.008 410.437 537.304 408.828C536.601 407.22 535.584 405.767 534.313 404.556L439.229 313.234ZM143.014 197.104C143.014 191.25 138.206 185.89 134.06 181.743L133.759 181.455L131.908 179.688C131.793 179.557 131.706 179.405 131.653 179.239C131.599 179.074 131.579 178.899 131.596 178.726C135.072 176.769 139.068 175.93 143.038 176.323C144.565 176.479 150.141 177.404 157.942 182.224C162.004 184.736 197.161 218.558 210.743 231.142C208.36 233.633 207.045 236.955 207.076 240.401C207.108 243.847 208.484 247.145 210.911 249.592L219.841 259.039L298.76 180.71L288.844 171.286C286.406 168.85 283.104 167.475 279.658 167.461C276.211 167.448 272.899 168.797 270.442 171.214C242.798 141.551 235.586 128.606 233.183 120.193C227.87 101.599 238.158 86.5387 250.009 76.9233C257.029 71.3704 271.5 67.2117 284.865 66.106C289.529 65.831 294.209 66.0729 298.82 66.8271C302.99 67.4281 306.392 68.1973 307.702 68.5098C312.238 69.7322 316.661 71.3407 320.923 73.3175L335.346 50.4809C330.893 42.741 325.482 35.5932 319.24 29.2069C317.226 27.0983 315.146 25.054 313.002 23.077C303.651 14.4833 279.348 8.02476e-05 247.389 8.02476e-05C228.932 -0.0196036 210.65 3.58208 193.579 10.6011C148.579 29.0386 119.204 54.1709 105.706 67.5122L105.622 67.5964C96.5522 76.7113 88.1604 86.4769 80.514 96.8151C74.0837 105.866 74.7808 115.854 75.2495 122.464C75.2495 122.849 75.2495 123.27 75.3337 123.666C71.565 120.936 67.0309 119.463 62.3769 119.459C59.4941 119.44 56.6365 119.996 53.9718 121.096C51.3071 122.196 48.8892 123.818 46.8601 125.866L2.38881 170.205C0.859239 171.735 0 173.81 0 175.974C0 178.138 0.859239 180.213 2.38881 181.743L78.1101 257.2C79.6247 258.713 81.6781 259.564 83.8192 259.564C85.9604 259.564 88.0138 258.713 89.5284 257.2L134.072 212.729C138.206 208.594 143.014 202.945 143.014 197.104Z" fill="#8D7348"/>
</svg>
